<?xml version="1.0" encoding="utf-8"?>
<!-- Generator: Adobe Illustrator 25.3.1, SVG Export Plug-In . SVG Version: 6.00 Build 0)  -->
<svg version="1.1" xmlns="http://www.w3.org/2000/svg" xmlns:xlink="http://www.w3.org/1999/xlink" x="0px" y="0px"
	 viewBox="0 0 444.28 126.14" style="enable-background:new 0 0 444.28 126.14;" xml:space="preserve">
<style type="text/css">
	.st0{fill:url(#SVGID_1_);}
	.st1{fill:#FFFFFF;}
	.st2{fill:url(#SVGID_2_);}
	.st3{font-family:'Lato';}	
	.st4{font-size:64.6739px;}
	.st5{letter-spacing:2;}
	.st6{font-family:'Lato'; font-weight: 300;}
</style>
<g id="Ebene_1">
	<linearGradient id="SVGID_1_" gradientUnits="userSpaceOnUse" x1="358.2982" y1="43.9365" x2="428.6011" y2="43.9365">
		<stop  offset="0" style="stop-color:#FBDA82"/>
		<stop  offset="0.4049" style="stop-color:#DF9788"/>
		<stop  offset="1" style="stop-color:#C63C75"/>
	</linearGradient>
	<path class="st0" d="M408.23,74.86c-5.79,3.79-13.06,7.07-21.42,5.28c-6.86-1.46-12.32-5.42-17.11-10.64
		c-5.19-5.66-7.88-12.49-9.54-19.59c-2.13-9.07-2.91-18.46,0.29-27.51c1.61-4.54,5.06-7.86,9.37-10.27
		c9.93-5.55,20.44-5.94,31.16-3.4c9,2.14,17.03,6.42,22.33,14.18c6.6,9.66,6.57,20.19,2.45,30.92
		C422.45,62.43,416.54,68.81,408.23,74.86z"/>
	<text transform="matrix(1 0 0 1 7.5774 108.0586)"><tspan x="0" y="0" class="st3 st4 st5">PICA</tspan><tspan x="156.96" y="0" class="st6 st4">MO</tspan><tspan x="266.1" y="0" class="st6 st4 st5">RY</tspan></text>
	<path class="st1" d="M373.73,24.39l6.91,0l4.61-4.61l13.83,0l4.61,4.61h6.91c2.55,0,4.61,2.06,4.61,4.61v27.66
		c0,2.55-2.06,4.61-4.61,4.61l-36.87,0c-2.55,0-4.61-2.06-4.61-4.61V29C369.13,26.46,371.19,24.39,373.73,24.39 M392.17,31.31
		c-6.36,0-11.52,5.16-11.52,11.52s5.16,11.52,11.52,11.52c6.36,0,11.52-5.16,11.52-11.52S398.53,31.31,392.17,31.31 M392.17,35.92
		c3.82,0,6.91,3.1,6.91,6.91s-3.1,6.91-6.91,6.91c-3.82,0-6.91-3.1-6.91-6.91S388.35,35.92,392.17,35.92z"/>
</g>
<g id="Ebene_2">
</g>
</svg>
