<svg xmlns="http://www.w3.org/2000/svg" xmlns:xlink="http://www.w3.org/1999/xlink" width="1920" height="1066" viewBox="0 0 1920 1066">
  <defs>
    <clipPath id="clip-path">
      <rect id="Rectangle_805" data-name="Rectangle 805" width="1920" height="1066" fill="none"/>
    </clipPath>
    <linearGradient id="linear-gradient" y1="0.5" x2="1" y2="0.5" gradientUnits="objectBoundingBox">
      <stop offset="0" stop-color="#ffd06c"/>
      <stop offset="0.405" stop-color="#d78275"/>
      <stop offset="1" stop-color="#b42762"/>
    </linearGradient>
  </defs>
  <g id="Mask_Group_3" data-name="Mask Group 3" clip-path="url(#clip-path)">
    <g id="icon" transform="translate(-172.871 -634.205)">
      <path id="Path_11" data-name="Path 11" d="M2142.817,2273.376c-197.272,129.384-444.9,241.349-729.7,180.38-233.592-50-419.689-184.991-582.924-363.423-176.931-193.462-268.515-426.681-325.176-669.054-72.434-309.8-99.215-630.594,9.915-939.641,54.752-155.1,172.435-268.332,319.213-350.615C1172.572-58.715,1530.694-72,1895.869,14.994c306.607,73.026,580.062,219.386,760.743,484.371,224.97,330.018,223.745,689.719,83.337,1056.148C2627.617,1848.677,2426.256,2066.9,2142.817,2273.376Z" transform="translate(-441.74 36.559)" fill="url(#linear-gradient)"/>
    </g>
    <g id="Component_62_1" data-name="Component 62 – 1" transform="translate(176.914 77.56) rotate(-74)">
      <path id="Path_360" data-name="Path 360" d="M2200.509,1784.721c-71.4,244.8-281.885,436.345-524.328,516.054s-511.445,55.718-750.334-34.1c-172.067-64.687-341.061-173.5-411.462-343.155-63.153-152.164-36.418-325.452.541-485.986s83.474-324.911,56.645-487.443C558.2,869.148,526.751,790.027,531.234,708.12c2.106-38.238,12.179-75.124,28.228-109.612,28.158-60.49,74.707-113.539,128.87-153.376,212.321-156.184,547.792-172.053,702.149,74.736,70.059,112.01,86.239,255.512,174.82,353.558,92.852,102.747,241.266,130.182,361.253,199.418C2166.044,1211.022,2276.806,1523.073,2200.509,1784.721Zm-596.636-1036.7c12.155,22.193,24.722,45.138,40.937,64.8,37.361,45.326,81.239,76.511,126.906,90.182a10.557,10.557,0,0,0,2.976.435,10.344,10.344,0,0,0,2.977-20.254c-41.725-12.483-82.133-41.364-116.88-83.505-14.955-18.161-27.052-40.236-38.748-61.582-13.861-25.332-28.2-51.509-47.844-72.468a10.351,10.351,0,0,0-15.12,14.141C1576.927,698.81,1590.024,722.708,1603.873,748.016Zm213.144,169.925a10.068,10.068,0,1,0-10.072-10.062A10.066,10.066,0,0,0,1817.017,917.941Z" transform="translate(-476.439 -330.573)" fill="#5d6da2"/>
    </g>
    <g id="Group_414" data-name="Group 414" transform="translate(712.516 3586.909) rotate(-156)">
      <g id="form" transform="translate(-569.955 1030)">
        <g id="Group_18" data-name="Group 18">
          <g id="Group_14" data-name="Group 14">
            <path id="Path_14" data-name="Path 14" d="M404.57,1211.021c66.387,33.6,215.619,107.007,402.358,81.078,235.218-32.661,271.093-172.636,549.607-363.6,384.513-263.641,642.169-220.391,688.877-424.379,20-87.321-1.723-206.6-119.5-372.49Q1448.352-258.851,970.779-649.325C866.97-582.294,724.757-476.939,592.85-326.162,378.646-81.307,406.288-56.083,230.988,51.72,32.88,173.551-126.482,198.213-205.98,294.049c-121.875,146.923,249.627,734.277,610.55,916.973" transform="translate(229.612 649.325)" fill="#ffd06c"/>
          </g>
        </g>
      </g>
    </g>
  </g>
</svg>
